<?xml version="1.0" encoding="UTF-8" standalone="no"?>
<!-- Created with Inkscape (http://www.inkscape.org/) -->

<svg
   width="5.900229mm"
   height="4.233285mm"
   viewBox="0 0 5.900229 4.233285"
   version="1.1"
   id="svg1"
   xml:space="preserve"
   xmlns:inkscape="http://www.inkscape.org/namespaces/inkscape"
   xmlns:sodipodi="http://sodipodi.sourceforge.net/DTD/sodipodi-0.dtd"
   xmlns="http://www.w3.org/2000/svg"
   xmlns:svg="http://www.w3.org/2000/svg"><sodipodi:namedview
     id="namedview1"
     pagecolor="#ffffff"
     bordercolor="#000000"
     borderopacity="0.25"
     inkscape:showpageshadow="2"
     inkscape:pageopacity="0.0"
     inkscape:pagecheckerboard="0"
     inkscape:deskcolor="#d1d1d1"
     inkscape:document-units="mm" /><defs
     id="defs1" /><g
     inkscape:label="Layer 1"
     inkscape:groupmode="layer"
     id="layer1"
     transform="translate(-64.576326,-152.62945)"><path
       style="fill:#000000;stroke-width:0.0675105"
       d="m 65.112188,156.66627 v -0.19648 h 2.438186 2.438185 v 0.19648 0.19648 h -2.438185 -2.438186 z m 0.732349,-1.50042 v -1.03601 h -0.518003 -0.518003 v -0.259 -0.259 h 1.295007 1.295007 v 0.259 0.259 H 66.880542 66.36254 v 1.03601 1.036 h -0.259002 -0.259001 z m 2.857946,0 v -1.03601 h -0.518002 -0.518003 v -0.259 -0.259 h 1.295007 1.295007 v 0.259 0.259 h -0.518003 -0.518003 v 1.03601 1.036 h -0.259001 -0.259002 z m -3.965401,-1.72442 c 0,-0.025 -0.03617,-0.18941 -0.08038,-0.36546 -0.04421,-0.17604 -0.08038,-0.34853 -0.08038,-0.38331 v -0.0632 h 0.366174 0.366175 v 0.42869 0.42869 h -0.285795 -0.285795 z m 0.628946,-0.10878 0.0052,-0.15416 0.392967,-0.14061 0.392968,-0.14061 1.750492,0.006 c 1.696874,0.006 1.755417,0.007 1.911252,0.0428 0.215115,0.0496 0.341587,0.0994 0.456585,0.1797 0.121371,0.0848 0.194245,0.18716 0.199959,0.28088 0.0038,0.0621 -9.18e-4,0.0722 -0.03583,0.0772 -0.03284,0.005 -0.04019,-0.003 -0.04019,-0.0408 0,-0.17208 -0.201124,-0.33508 -0.444891,-0.36056 l -0.108837,-0.0114 v 0.20796 0.20795 h -0.08931 -0.08931 v -0.24113 -0.24114 h -0.04466 -0.04465 v 0.24114 0.24113 H 67.469341 65.36091 Z"
       id="path3" /></g></svg>
