<?xml version="1.0" encoding="UTF-8" standalone="no"?>
<!-- Created with Inkscape (http://www.inkscape.org/) -->

<svg
   width="33.726208mm"
   height="10.616023mm"
   viewBox="0 0 33.726208 10.616023"
   version="1.1"
   id="svg1"
   xml:space="preserve"
   xmlns:inkscape="http://www.inkscape.org/namespaces/inkscape"
   xmlns:sodipodi="http://sodipodi.sourceforge.net/DTD/sodipodi-0.dtd"
   xmlns="http://www.w3.org/2000/svg"
   xmlns:svg="http://www.w3.org/2000/svg"><sodipodi:namedview
     id="namedview1"
     pagecolor="#ffffff"
     bordercolor="#000000"
     borderopacity="0.25"
     inkscape:showpageshadow="2"
     inkscape:pageopacity="0.0"
     inkscape:pagecheckerboard="0"
     inkscape:deskcolor="#d1d1d1"
     inkscape:document-units="mm" /><defs
     id="defs1" /><g
     inkscape:label="Layer 1"
     inkscape:groupmode="layer"
     id="layer1"
     transform="translate(-42.50784,-35.293483)"><path
       style="fill:#000000"
       d="m 42.507842,45.582857 v -0.326646 h 16.863106 16.863105 v 0.326646 0.326646 H 59.370948 42.507842 Z m 2.613169,-2.409015 v -1.674061 h -0.816615 -0.816615 v -0.408308 -0.408308 h 2.082368 2.082369 v 0.408308 0.408308 h -0.816615 -0.816615 v 1.674061 1.674061 h -0.449139 -0.449138 z m 3.29107,1.529338 c -0.297057,-0.233436 -0.351269,-0.536728 -0.35095,-1.963377 4.61e-4,-2.057572 0.03349,-2.086733 2.313526,-2.042485 l 1.374722,0.02668 0.238093,0.266688 0.238092,0.266689 v 1.556562 1.556562 l -0.238703,0.238703 -0.238703,0.238703 -1.578266,-0.0018 c -1.369877,-0.0016 -1.601973,-0.02044 -1.757811,-0.142907 z m 2.996868,-1.939773 v -1.26788 l -1.245339,0.02254 -1.245338,0.02254 -0.02254,1.245339 -0.02254,1.245338 h 1.267881 1.267881 z m 1.306584,0.0021 v -2.082369 h 1.676684 c 1.928379,0 2.171576,0.05393 2.368501,0.525239 0.178389,0.426946 0.155335,1.252456 -0.04411,1.579581 -0.199491,0.327196 -0.442711,0.426688 -1.043088,0.426688 h -0.461168 l 0.39843,0.404512 c 0.360989,0.3665 0.437437,0.406787 0.813545,0.428723 l 0.415116,0.02421 0.02489,0.387892 0.02489,0.387892 H 56.260448 55.631674 L 54.801825,44.03126 c -0.636942,-0.626784 -0.88097,-0.816615 -1.049761,-0.816615 h -0.219916 v 0.816615 0.816615 h -0.408307 -0.408308 z m 3.307292,-0.816615 v -0.408308 l -1.245338,-0.02254 -1.245339,-0.02254 v 0.453392 0.453392 l 1.245339,-0.02254 1.245338,-0.02254 z m 1.265754,0.811002 v -2.087955 l 1.844224,0.02603 1.844225,0.02603 0.238144,0.266688 c 0.223879,0.250713 0.238144,0.308682 0.238144,0.96769 0,0.688334 -0.005,0.706017 -0.277649,0.97865 l -0.277649,0.277649 h -1.396412 -1.396412 v 0.816615 0.816615 h -0.408308 -0.408307 z m 3.331974,-0.790587 -0.02468,-0.428723 h -1.224925 -1.224923 l -0.02468,0.428723 -0.02468,0.428723 h 1.274289 1.274288 z m 1.592326,2.733846 c -0.296326,-0.232862 -0.351255,-0.537336 -0.351255,-1.947017 0,-2.090187 -0.02063,-2.072998 2.488054,-2.072998 h 1.676684 l 4.5e-5,0.428723 4.4e-5,0.428723 h -1.65369 -1.653691 v 0.408308 0.408308 l 1.653646,0.02211 1.653646,0.02211 v 0.406617 0.406617 h -1.674061 -1.674062 v 0.408307 0.408308 h 1.674062 1.674061 v 0.408308 0.408307 l -1.816969,-0.0018 c -1.596067,-0.0016 -1.838797,-0.01897 -1.996514,-0.142907 z m 4.303452,-1.937646 v -2.082369 h 1.676684 c 2.504044,0 2.488054,-0.01355 2.488054,2.108391 0,0.714265 -0.03944,1.410149 -0.08777,1.548804 -0.167492,0.480469 -0.288986,0.507543 -2.277539,0.507543 h -1.799427 z m 3.329834,0.02042 -0.02254,-1.245339 -1.245338,-0.02254 -1.245339,-0.02254 v 1.26788 1.267881 h 1.267881 1.267881 z m 1.481915,1.82325 -0.238703,-0.238703 V 42.813912 41.25735 l 0.23814,-0.266689 0.23814,-0.266688 1.456337,-0.02379 c 1.269605,-0.02074 1.492838,-0.005 1.741015,0.122492 0.448493,0.230454 0.488559,0.391347 0.489902,1.967304 0.0013,1.49361 -0.05919,1.790037 -0.402581,1.973816 -0.09206,0.04927 -0.804343,0.08408 -1.720328,0.08408 h -1.563219 z m 3.091131,-1.82325 -0.02254,-1.245339 h -1.224923 -1.224923 l -0.02254,1.245339 -0.02254,1.245338 h 1.270008 1.270007 z m -30.85187,-2.830412 c 0.05232,-0.182412 -0.06067,-0.751912 -0.486033,-2.449846 l -0.554192,-2.212187 h 2.195224 2.195225 v 2.449846 2.449845 h -1.709192 -1.709192 z m 3.595208,-0.650711 v -0.88837 l 0.224569,-0.08967 c 0.123514,-0.04932 1.103283,-0.402878 2.177267,-0.785692 l 1.952697,-0.696024 9.806563,3.28e-4 c 8.261617,2.77e-4 9.922349,0.01933 10.541516,0.120939 2.666912,0.437656 4.368892,1.595034 4.368892,2.97093 0,0.235507 -0.02167,0.255925 -0.271672,0.255925 -0.253851,0 -0.269373,-0.01567 -0.23662,-0.238828 0.14434,-0.983452 -1.199429,-2.062853 -2.662524,-2.138711 l -0.435156,-0.02256 -0.01398,1.179635 -0.01398,1.179636 -0.510385,0.02431 -0.510384,0.02431 v -1.392143 -1.392143 h -0.244985 -0.244984 v 1.388246 1.388246 H 59.125963 47.162549 Z"
       id="path2" /></g></svg>
